<?xml version="1.0" standalone="no"?>
<!DOCTYPE svg PUBLIC "-//W3C//DTD SVG 20010904//EN"
 "http://www.w3.org/TR/2001/REC-SVG-20010904/DTD/svg10.dtd">
<svg version="1.0" xmlns="http://www.w3.org/2000/svg"
 width="1600.000000pt" height="960.000000pt" viewBox="0 0 1600.000000 960.000000"
 preserveAspectRatio="xMidYMid meet">

<g transform="translate(0.000000,960.000000) scale(0.100000,-0.100000)"
fill="#000000" stroke="none">
<path d="M0 4800 l0 -4800 8000 0 8000 0 0 4800 0 4800 -8000 0 -8000 0 0
-4800z m8160 4648 c0 -12 114 -367 193 -600 l30 -88 373 0 c206 0 374 -3 374
-7 -1 -7 -218 -165 -377 -275 -79 -54 -218 -159 -221 -167 -1 -3 49 -161 112
-351 63 -190 111 -346 106 -348 -7 -3 -51 27 -168 113 -15 11 -72 51 -127 90
-55 38 -107 75 -115 82 -8 7 -55 41 -105 76 l-90 64 -100 -69 c-55 -38 -143
-100 -195 -139 -182 -133 -315 -227 -318 -224 -2 1 15 56 36 121 22 66 65 200
97 299 31 99 66 204 76 233 10 29 19 54 19 56 0 2 -50 39 -110 82 -61 44 -173
123 -248 177 -75 54 -161 114 -189 134 -29 20 -53 40 -53 44 0 5 168 9 373 9
l373 0 73 223 c40 122 86 257 102 300 16 43 29 85 29 93 0 24 28 84 39 84 6 0
11 -6 11 -12z m1729 -1350 c23 -73 50 -155 60 -183 l18 -50 192 -5 191 -5 -62
-46 c-35 -25 -103 -74 -153 -109 -49 -35 -91 -64 -93 -65 -1 -1 16 -56 38
-121 22 -65 49 -146 60 -178 11 -33 18 -61 16 -63 -4 -5 -79 46 -250 171 -38
27 -71 45 -74 40 -4 -6 -54 -43 -112 -83 -58 -41 -106 -78 -108 -82 -2 -5 -9
-9 -16 -9 -7 0 -21 -9 -31 -20 -44 -49 -41 -15 17 157 32 97 57 180 56 184 -2
5 -31 28 -64 51 -34 24 -102 72 -152 108 l-91 65 194 3 193 2 53 163 c57 174
56 170 58 192 3 40 21 4 60 -117z m-3516 50 c15 -40 40 -116 57 -168 16 -52
34 -101 38 -107 6 -9 61 -13 197 -15 l189 -3 -118 -85 c-65 -47 -133 -95 -152
-108 -19 -12 -34 -29 -34 -37 0 -8 13 -51 29 -97 42 -119 81 -243 81 -256 0
-10 -186 119 -273 189 l-38 31 -68 -49 c-38 -26 -106 -75 -152 -108 -46 -33
-89 -64 -96 -68 -9 -6 -8 8 5 45 10 29 33 100 51 158 18 58 37 115 42 128 13
34 12 37 -28 65 -21 15 -63 44 -93 66 -30 22 -79 56 -108 76 -28 20 -55 41
-58 46 -3 5 74 9 184 9 l190 0 58 180 c33 99 62 180 65 180 4 0 18 -33 32 -72z
m1693 -839 c13 -13 36 -48 50 -78 15 -31 35 -68 46 -83 25 -37 16 -50 -25 -36
-54 19 -75 38 -123 110 -26 38 -55 75 -65 81 -24 15 -24 24 -1 31 35 10 94 -3
118 -25z m117 20 c25 -14 56 -49 57 -65 0 -7 18 -47 39 -90 22 -43 38 -80 36
-83 -2 -2 -24 6 -48 17 -50 24 -87 64 -121 131 -13 25 -33 55 -45 65 -12 11
-21 23 -21 28 0 12 78 10 103 -3z m-251 -41 c15 -18 28 -37 28 -41 0 -10 55
-90 76 -111 24 -25 8 -35 -37 -23 -43 10 -75 38 -171 148 -27 29 -48 54 -48
56 0 6 50 11 85 8 30 -3 46 -11 67 -37z m391 29 c33 -14 43 -29 71 -104 8 -23
25 -63 37 -88 12 -25 19 -48 16 -51 -11 -11 -74 25 -102 57 -15 19 -41 61 -56
95 -15 33 -35 66 -43 73 -36 30 19 42 77 18z m-555 -23 c12 -8 38 -41 58 -72
20 -31 48 -69 62 -84 14 -15 23 -30 20 -33 -3 -3 -25 -3 -49 1 -39 6 -55 18
-131 96 -49 49 -88 91 -88 93 0 2 10 6 23 8 48 9 83 6 105 -9z m713 -5 c9 -4
21 -14 27 -22 13 -16 73 -209 67 -216 -8 -7 -63 21 -83 42 -19 21 -82 148 -82
166 0 5 -7 14 -15 21 -27 23 -17 32 28 25 23 -4 49 -11 58 -16z m-824 -56 c21
-26 57 -68 81 -94 50 -55 41 -66 -35 -44 -35 10 -66 31 -108 73 -33 32 -73 66
-90 77 l-30 19 25 7 c14 4 46 7 72 8 44 1 49 -2 85 -46z m963 30 c34 -20 45
-43 61 -125 6 -35 18 -78 25 -97 18 -40 14 -47 -18 -31 -51 27 -78 64 -104
144 -15 45 -34 91 -42 104 -14 21 -13 22 18 22 17 0 45 -7 60 -17z m-1096 -65
c21 -24 56 -62 77 -85 21 -23 39 -44 39 -47 0 -10 -67 -7 -95 4 -33 13 -197
142 -189 149 3 3 20 11 37 18 50 19 88 8 131 -39z m1218 33 c38 -14 59 -46 64
-97 3 -27 12 -76 20 -108 8 -32 12 -61 10 -63 -10 -10 -66 29 -85 60 -12 19
-30 69 -40 112 -11 43 -25 83 -30 88 -29 29 -2 32 61 8z m-1385 -55 c15 -13
46 -40 68 -61 22 -20 50 -44 63 -52 33 -23 27 -33 -22 -33 -59 0 -86 11 -154
64 -32 23 -70 50 -87 59 l-30 15 35 15 c52 23 94 21 127 -7z m1514 10 c56 -24
67 -43 74 -136 4 -47 11 -100 15 -118 l9 -33 -32 20 c-43 26 -73 81 -92 166
-8 38 -18 80 -21 93 -7 26 1 27 47 8z m190 -98 c9 -17 30 -245 24 -256 -4 -6
-68 65 -80 89 -7 14 -19 63 -25 109 -6 46 -16 92 -21 101 -5 10 -9 20 -9 24 0
13 100 -47 111 -67z m-3664 -118 l58 -180 170 -1 c94 -1 176 -1 184 0 7 2 20
0 28 -4 11 -4 -16 -28 -88 -78 -152 -105 -209 -150 -209 -163 0 -7 25 -88 55
-180 30 -92 53 -169 51 -172 -3 -2 -35 18 -72 44 -70 51 -106 77 -191 137
l-51 36 -87 -62 c-47 -34 -116 -83 -153 -109 -36 -27 -70 -48 -74 -48 -4 0 3
30 16 68 41 116 97 294 94 297 -5 3 -143 105 -225 165 -40 29 -73 57 -73 62 0
5 81 8 189 6 l188 -3 57 170 c32 94 59 176 61 183 3 6 6 12 9 12 2 0 30 -81
63 -180z m1883 110 c46 -38 88 -70 92 -70 5 0 8 -4 8 -10 0 -15 -96 -12 -136
5 -20 8 -58 31 -84 50 -26 19 -54 35 -61 35 -8 0 -20 4 -28 9 -11 7 -5 14 25
30 67 35 90 29 184 -49z m3596 -117 l57 -173 193 0 c107 0 194 -3 194 -7 0 -5
-20 -21 -44 -38 -53 -36 -247 -175 -260 -186 -4 -4 -1 -27 7 -51 49 -140 100
-308 95 -313 -5 -5 -30 12 -229 157 l-78 57 -48 -34 c-26 -18 -84 -58 -128
-88 -44 -30 -91 -65 -104 -76 -13 -12 -28 -21 -33 -21 -11 0 -7 14 57 205 l53
160 -21 15 c-12 8 -58 41 -102 73 -44 31 -104 74 -133 94 -31 22 -49 40 -44
45 5 5 93 8 196 6 l187 -3 5 25 c3 14 20 70 38 125 18 55 42 126 52 157 10 32
21 55 25 50 4 -4 33 -85 65 -179z m-3804 116 c43 -23 177 -127 171 -133 -4 -3
-33 -6 -65 -6 -50 0 -71 7 -146 46 -48 25 -88 49 -90 53 -3 8 76 49 96 50 7 1
23 -4 34 -10z m2112 -51 c12 -17 16 -50 16 -140 0 -65 -4 -118 -8 -118 -12 0
-47 39 -63 70 -7 14 -16 61 -20 105 -4 44 -10 95 -14 113 l-8 34 41 -21 c22
-11 48 -31 56 -43z m-2164 -68 c46 -27 89 -50 97 -50 27 0 12 -28 -18 -34 -61
-12 -98 -6 -161 28 -35 18 -78 37 -96 40 -40 9 -40 15 1 43 50 34 84 29 177
-27z m2247 30 c59 -35 68 -60 55 -148 -7 -42 -12 -95 -12 -116 l0 -39 -25 23
c-13 13 -31 41 -39 64 -15 41 -29 236 -17 236 3 0 20 -9 38 -20z m-2372 -100
c54 -27 105 -50 114 -50 13 0 13 -2 -1 -16 -12 -12 -35 -17 -85 -17 -56 0 -80
6 -133 32 -36 17 -78 31 -95 31 -28 0 -27 2 25 35 30 19 59 35 66 35 6 0 55
-22 109 -50z m2532 -17 c16 -24 16 -25 -2 -207 -3 -33 -7 -62 -10 -64 -2 -2
-18 17 -35 44 -29 47 -30 53 -29 154 0 58 -3 113 -6 123 -7 16 -3 15 29 -4 21
-12 44 -33 53 -46z m-2664 -55 c34 -18 77 -37 95 -43 46 -14 42 -28 -13 -43
-41 -12 -56 -11 -113 3 -37 9 -88 21 -114 28 -27 6 -48 15 -48 19 0 15 83 68
107 68 13 0 52 -15 86 -32z m1472 22 c451 -50 825 -233 1131 -551 39 -41 90
-101 115 -134 24 -33 46 -62 49 -65 3 -3 20 -27 37 -55 115 -186 178 -333 229
-534 31 -123 35 -154 41 -321 8 -274 -12 -420 -91 -667 -6 -20 -4 -23 18 -23
14 0 88 13 165 29 l140 29 49 50 c35 34 64 53 97 62 26 7 62 24 81 37 19 12
38 23 41 23 3 0 3 -22 0 -50 -7 -54 -7 -53 54 -53 54 0 470 128 601 184 36 16
68 29 71 29 2 0 2 -36 -1 -80 -4 -67 0 -93 23 -167 26 -85 92 -199 121 -210 8
-3 37 16 68 44 188 168 290 256 351 302 39 30 72 57 75 60 15 21 212 141 292
179 99 46 214 72 318 72 181 0 314 -43 394 -126 64 -66 90 -138 83 -229 -9
-111 -15 -134 -67 -240 -57 -118 -145 -221 -245 -286 l-63 -41 -12 -66 c-32
-185 79 -273 292 -232 57 11 218 71 218 80 0 4 -18 16 -39 28 -51 29 -117 103
-132 149 -16 50 -7 111 30 189 90 192 325 429 536 539 47 25 92 45 100 45 8 0
15 8 15 18 0 33 -12 62 -26 62 -8 0 -14 6 -14 13 0 14 66 145 84 167 7 8 31
51 52 95 21 44 40 82 41 84 3 4 31 -29 151 -178 52 -64 110 -134 130 -156 103
-111 192 -213 192 -219 0 -4 -14 1 -31 10 -46 23 -163 71 -241 99 l-68 23 22
-32 c45 -62 231 -237 390 -367 212 -173 251 -213 293 -301 72 -149 37 -288
-109 -433 -48 -47 -94 -82 -141 -105 -68 -34 -74 -35 -182 -34 -128 0 -123 4
-123 -96 0 -106 60 -169 178 -190 67 -12 120 -7 272 24 84 18 248 97 327 157
l44 34 -5 125 c-3 92 -13 161 -36 258 -40 173 -42 178 -90 202 -22 11 -40 23
-40 26 0 27 142 234 192 281 l24 23 19 -53 c10 -28 44 -113 76 -188 47 -112
97 -257 126 -361 8 -30 -9 -21 -67 37 l-55 54 3 -133 c3 -146 -9 -221 -51
-316 -30 -66 -131 -185 -221 -260 -37 -30 -78 -64 -92 -76 -49 -41 -177 -105
-267 -136 -78 -26 -103 -30 -162 -26 -126 8 -230 79 -280 190 -41 92 -38 254
7 378 11 30 22 62 25 71 8 28 -341 156 -459 167 -42 4 -60 -1 -131 -36 -116
-57 -194 -92 -205 -92 -5 0 -36 -11 -70 -25 -110 -44 -227 -68 -347 -69 -103
-1 -114 1 -170 29 -51 25 -64 38 -89 84 -46 85 -46 223 0 354 7 20 12 37 10
37 -2 0 -23 -9 -47 -19 -50 -22 -198 -56 -344 -78 -77 -11 -160 -13 -355 -10
-284 5 -318 12 -435 83 -64 38 -68 39 -87 21 -11 -11 -164 -128 -229 -176 -28
-20 -32 -9 -19 53 11 52 17 61 100 137 l88 82 -39 57 c-57 84 -90 163 -96 231
-5 56 -7 59 -32 59 -15 0 -65 -11 -111 -24 -47 -13 -101 -27 -120 -31 -127
-23 -258 -59 -276 -76 -11 -10 -24 -19 -28 -19 -5 0 -19 -11 -31 -24 -21 -23
-96 -46 -149 -46 -13 0 -42 -7 -65 -15 -43 -15 -49 -9 -30 27 10 18 9 20 -7
14 -9 -4 -20 -3 -23 2 -3 5 -60 -1 -126 -14 -66 -13 -141 -26 -167 -29 -45 -6
-49 -9 -85 -66 -89 -142 -155 -223 -286 -352 -100 -98 -125 -118 -252 -204
-160 -107 -471 -240 -602 -257 -21 -3 -83 -12 -138 -21 -130 -22 -339 -22
-475 0 -58 9 -120 19 -139 21 -50 7 -214 61 -311 102 -214 92 -433 243 -585
403 -77 81 -218 265 -243 316 -16 34 -63 54 -158 69 -46 6 -201 51 -226 65
-10 5 -31 9 -47 9 -17 0 -32 4 -36 10 -3 5 -12 7 -21 3 -8 -3 -23 2 -34 12
-11 10 -40 18 -75 20 -55 4 -56 3 -72 -31 -9 -19 -20 -34 -24 -34 -9 0 -29 57
-29 81 0 11 -4 19 -9 19 -5 0 -12 8 -16 18 -3 9 -29 28 -58 40 -60 27 -155 75
-309 156 -87 46 -120 58 -172 63 -35 3 -76 3 -90 -1 -43 -11 -96 -66 -133
-140 -43 -84 -108 -272 -117 -339 -13 -85 -76 -249 -125 -322 -99 -148 -230
-181 -391 -100 -41 21 -54 35 -90 102 -49 91 -116 281 -125 356 -4 28 -11 70
-16 92 -13 54 -24 413 -12 400 5 -5 24 -73 42 -150 90 -379 221 -586 357 -561
42 8 100 82 133 171 13 33 27 70 32 83 5 12 18 64 28 115 70 326 97 404 168
494 85 107 215 130 368 66 42 -18 99 -53 230 -144 102 -71 211 -130 227 -124
7 3 20 18 29 34 9 16 43 47 75 69 33 22 68 49 78 61 30 33 46 27 40 -16 -6
-48 -25 -77 -92 -140 -31 -29 -53 -55 -49 -59 9 -9 115 63 131 88 6 10 15 18
20 18 14 0 -2 -101 -19 -120 -14 -16 -14 -18 5 -23 11 -3 23 0 27 5 4 7 10 5
18 -5 13 -19 102 -67 123 -67 8 0 60 -13 116 -29 55 -16 116 -32 135 -35 29
-5 32 -4 26 12 -78 193 -123 499 -104 715 55 648 427 1186 1011 1465 48 23 93
42 99 42 6 0 25 6 42 14 74 32 122 46 241 71 209 43 358 53 521 35z m1288 -34
c45 -41 47 -70 13 -205 l-23 -93 -21 27 c-39 49 -46 90 -32 181 7 45 10 91 7
103 -8 31 14 26 56 -13z m-2846 -89 c54 -18 100 -37 102 -42 5 -14 -60 -45
-95 -45 -17 0 -68 11 -113 25 -46 13 -87 22 -92 20 -4 -3 -10 -1 -13 4 -9 14
62 71 89 71 13 0 68 -15 122 -33z m2957 -2 c48 -46 49 -68 10 -178 -13 -38
-24 -81 -24 -98 0 -42 -16 -36 -40 17 -22 51 -26 108 -10 150 6 14 11 53 11
85 1 33 5 59 9 59 5 0 24 -16 44 -35z m-3043 -98 l97 -33 -31 -17 c-45 -26
-104 -30 -186 -13 -41 9 -85 13 -98 10 -32 -9 -29 8 11 50 43 46 78 47 207 3z
m3179 -77 c0 -17 -14 -68 -31 -113 -17 -45 -34 -91 -39 -102 -6 -18 -9 -17
-29 15 -27 44 -27 99 -1 175 11 32 20 77 20 99 l1 41 39 -42 c29 -30 40 -51
40 -73z m-3285 -21 c28 -5 60 -12 73 -15 32 -6 27 -17 -19 -43 -38 -22 -47
-23 -164 -16 l-124 7 27 36 c35 46 74 62 121 51 20 -5 59 -14 86 -20z m3341
-11 c27 -32 44 -65 44 -84 0 -10 -17 -56 -39 -103 -21 -47 -42 -95 -46 -106
-6 -18 -9 -16 -25 15 -26 47 -24 90 5 183 14 43 25 87 25 97 0 26 12 25 36 -2z
m-3413 -95 c42 -3 80 -9 83 -14 2 -4 -14 -21 -37 -36 -41 -27 -48 -28 -166
-28 -82 0 -123 4 -123 11 0 6 17 28 38 48 35 36 40 38 82 32 25 -4 80 -10 123
-13z m3518 -40 c36 -57 34 -67 -26 -174 -25 -43 -45 -87 -45 -99 0 -30 -17
-24 -29 11 -19 55 -13 113 19 181 16 34 30 78 30 96 0 45 15 40 51 -15z m4884
-93 c-72 -72 -84 -81 -134 -91 -31 -6 -108 -24 -171 -39 -63 -16 -135 -31
-160 -35 -25 -3 -99 -19 -165 -35 -66 -16 -183 -43 -260 -60 -77 -17 -185 -42
-240 -56 -55 -14 -110 -28 -121 -30 -12 -2 -51 -13 -85 -23 -35 -11 -77 -22
-93 -25 -32 -6 -184 -55 -296 -96 -41 -15 -100 -35 -130 -45 -30 -10 -61 -22
-68 -28 -7 -5 -16 -7 -20 -3 -7 7 26 40 150 148 58 51 78 61 174 91 141 44
292 88 324 94 14 2 66 14 115 27 50 13 155 38 235 55 80 18 204 45 275 61 72
17 155 34 185 39 141 22 502 110 540 131 36 20 18 -6 -55 -80z m-8442 16 c20
0 37 -4 37 -8 0 -4 -19 -20 -41 -35 -37 -24 -55 -28 -148 -34 -58 -3 -114 -9
-123 -14 -32 -13 -14 27 36 84 20 22 24 23 111 15 50 -4 107 -8 128 -8z m3645
-52 c28 -49 23 -69 -34 -157 -25 -37 -49 -78 -54 -92 -13 -35 -25 -31 -39 15
-14 47 -8 75 35 160 18 36 36 78 39 93 9 36 24 30 53 -19z m-3688 -65 c0 -3
-13 -18 -29 -33 -32 -31 -116 -56 -188 -56 -23 0 -54 -5 -69 -10 -15 -6 -29
-9 -31 -6 -8 8 37 85 59 100 18 13 46 16 140 14 65 -2 118 -6 118 -9z m-4284
-64 c53 -129 49 -247 -12 -364 -8 -14 -14 -31 -14 -38 0 -6 -4 -14 -9 -17 -5
-3 -9 30 -8 77 1 94 -28 203 -68 257 l-24 33 31 46 c34 49 58 72 72 68 4 -2
19 -29 32 -62z m8045 1 c10 -22 19 -50 19 -61 0 -12 -27 -57 -61 -100 -33 -44
-64 -86 -69 -95 -9 -13 -11 -13 -20 0 -22 34 -10 92 43 200 28 59 56 105 61
102 4 -2 17 -23 27 -46z m-8339 -124 c47 -197 85 -413 93 -518 2 -37 4 -39 34
-37 41 2 368 89 382 102 4 3 -1 55 -10 115 l-18 108 40 52 c21 28 61 81 89
119 27 37 53 67 57 67 10 0 31 -222 31 -322 0 -73 1 -78 22 -78 11 0 88 23
171 50 82 28 151 49 153 47 2 -2 -18 -25 -44 -52 -42 -43 -103 -79 -150 -90
-9 -3 -46 -12 -81 -22 l-63 -18 6 -50 c3 -27 6 -76 6 -108 l0 -57 28 6 c15 3
87 26 160 51 73 25 135 43 137 41 5 -5 -25 -38 -71 -79 -31 -27 -67 -45 -143
-68 l-101 -32 0 -139 c0 -96 3 -140 11 -140 26 0 292 141 392 208 111 74 257
190 257 205 0 4 -7 21 -15 37 -8 15 -17 52 -21 82 -5 48 -2 60 35 134 44 88
107 166 152 189 15 8 44 15 63 15 45 0 65 -28 73 -102 4 -45 1 -62 -21 -105
-29 -59 -56 -100 -106 -162 -34 -42 -35 -45 -32 -121 4 -88 -6 -115 -62 -169
-37 -36 -44 -32 -25 15 7 20 7 42 -1 76 -7 26 -14 48 -16 48 -4 0 -57 -43
-164 -133 -69 -59 -308 -210 -407 -258 l-112 -54 -6 -70 c-3 -38 -7 -142 -8
-230 -2 -141 1 -168 20 -231 47 -148 118 -210 255 -221 82 -7 85 3 9 41 -49
25 -95 61 -142 110 -47 49 -50 159 -9 326 41 168 119 278 234 330 36 17 85 32
108 35 24 3 102 12 173 20 179 21 240 33 310 65 80 36 125 77 164 150 18 33
34 60 37 60 3 0 4 -51 3 -112 -2 -169 -41 -262 -138 -332 -99 -70 -155 -84
-455 -106 -227 -17 -322 -47 -357 -112 -14 -26 31 -118 77 -157 121 -100 366
-148 544 -105 36 9 76 18 89 20 34 7 120 52 166 88 50 39 53 42 94 96 19 25
39 50 44 55 6 6 7 -28 4 -93 -6 -94 -10 -111 -43 -178 -44 -87 -117 -176 -194
-236 -55 -43 -187 -115 -248 -136 l-33 -11 20 -40 c61 -118 229 -147 395 -67
97 47 175 120 201 189 18 47 18 67 5 455 -7 224 -16 556 -19 737 l-7 330 64
122 64 121 52 -18 c63 -22 204 -95 232 -121 11 -11 25 -19 30 -19 22 0 203
-199 241 -265 47 -82 100 -214 107 -271 3 -21 10 -66 16 -99 15 -88 12 -279
-5 -380 -9 -47 -18 -103 -20 -123 -8 -54 -39 -159 -47 -161 -5 0 -10 77 -12
172 -3 94 -9 199 -15 232 -6 33 -16 87 -22 120 -43 235 -153 431 -301 535 -71
50 -175 90 -233 90 l-27 0 6 -457 c4 -252 11 -565 16 -697 14 -367 -17 -527
-128 -657 -76 -89 -167 -136 -330 -170 -98 -20 -188 8 -259 83 -40 41 -88 161
-104 257 l-12 73 -31 -6 c-123 -25 -221 -28 -325 -11 -111 18 -179 45 -243 96
-20 16 -39 29 -41 29 -13 0 14 -95 36 -129 43 -65 120 -108 307 -171 152 -51
213 -130 191 -247 -10 -51 -39 -133 -48 -133 -2 0 -23 13 -46 29 -63 43 -182
92 -251 103 -92 15 -155 -2 -323 -89 -108 -55 -164 -78 -219 -88 -122 -24
-209 3 -274 85 -40 51 -69 117 -81 188 -5 31 -14 82 -19 112 -30 172 -40 399
-40 871 l0 487 -32 -8 c-80 -18 -414 -151 -484 -192 -51 -30 -41 -9 29 59 60
59 67 62 222 117 88 31 184 63 213 71 l52 16 0 119 c0 66 -4 120 -8 120 -32 0
-342 -121 -466 -181 -44 -21 -81 -37 -83 -36 -1 2 26 31 60 65 69 68 132 98
365 174 l124 40 -7 52 c-4 28 -16 98 -27 156 -11 58 -22 116 -25 130 -2 13
-22 67 -43 118 -45 108 -47 100 39 200 31 37 66 79 75 95 10 15 21 27 25 27 3
0 23 -71 43 -158z m4508 70 c0 -15 -55 -61 -92 -76 -21 -9 -52 -16 -70 -16
-19 0 -58 -6 -88 -14 -30 -8 -57 -13 -59 -10 -9 8 34 86 53 97 12 7 64 15 116
18 52 3 105 6 118 7 12 1 22 -2 22 -6z m3908 -97 c12 -42 7 -56 -50 -122 -28
-32 -59 -73 -70 -90 -31 -51 -41 -41 -36 35 3 61 8 72 50 131 26 35 50 77 54
94 l6 30 19 -24 c11 -13 23 -37 27 -54z m-8874 13 c-2 -19 -17 -63 -33 -98
-34 -71 -40 -130 -16 -150 11 -9 34 -11 81 -6 l66 7 -23 -38 c-39 -65 -46 -73
-80 -99 -69 -50 -139 -16 -139 68 0 39 13 78 71 209 16 36 29 68 29 71 0 3 7
22 15 42 18 44 32 40 29 -6z m13672 10 c4 -5 -25 -310 -30 -316 -2 -2 -13 1
-24 7 -33 17 -87 13 -115 -9 -14 -11 -49 -69 -77 -128 -71 -147 -129 -231
-201 -290 -70 -57 -161 -92 -240 -92 l-51 0 60 64 c123 132 160 218 112 261
-20 18 -35 20 -154 18 -147 -2 -168 5 -192 63 -18 43 -11 94 28 196 28 74 31
78 70 89 83 22 174 -19 246 -110 40 -50 122 -239 122 -280 0 -11 4 -22 9 -25
14 -9 59 50 70 92 30 112 43 164 55 223 24 113 76 194 148 230 23 12 153 17
164 7z m-8766 -43 c0 -3 -18 -23 -40 -45 -40 -40 -78 -55 -160 -67 -25 -3 -57
-12 -72 -19 -15 -8 -29 -14 -33 -14 -19 0 29 105 53 115 9 4 62 13 117 20 127
16 135 16 135 10z m4011 -91 c12 -25 18 -56 15 -67 -3 -12 -29 -47 -58 -77
-29 -31 -65 -71 -79 -89 -26 -33 -27 -33 -34 -11 -15 48 4 103 60 174 31 38
58 80 61 93 4 12 8 23 11 23 2 0 13 -21 24 -46z m-4071 -32 c0 -15 -62 -83
-88 -96 -15 -7 -58 -21 -97 -31 -38 -10 -76 -23 -83 -28 -20 -16 -24 -2 -13
40 17 63 45 82 139 93 45 6 92 15 104 20 29 11 38 12 38 2z m6370 -16 c-8 -8
-48 -41 -88 -75 -60 -49 -87 -64 -155 -85 -96 -29 -315 -85 -355 -91 -31 -4
-381 -90 -428 -106 -17 -5 -41 -11 -53 -14 -53 -10 -328 -101 -398 -132 -18
-7 -61 -24 -96 -38 -60 -22 -141 -57 -180 -77 -35 -18 -26 -2 43 74 63 68 79
80 157 113 226 94 434 152 1163 326 74 18 191 51 260 74 143 49 150 50 130 31z
m1280 -19 c0 -8 -37 -83 -83 -168 -46 -85 -96 -179 -111 -209 -26 -50 -40 -63
-153 -138 l-125 -83 -115 3 -116 3 126 63 c69 34 128 62 130 62 7 0 107 61
145 88 17 13 37 32 43 43 29 56 -74 102 -173 78 -78 -18 -148 -52 -193 -93
-36 -32 -55 -43 -55 -32 0 2 8 24 18 48 11 24 22 57 25 75 3 17 19 61 36 96
35 78 59 92 264 148 104 29 337 39 337 16z m-3529 -77 c6 -21 9 -49 6 -62 -4
-12 -45 -62 -91 -110 l-85 -86 -7 34 c-8 43 19 100 85 177 27 31 53 66 56 77
9 28 22 17 36 -30z m2395 -14 c1 -14 -15 -53 -38 -93 -52 -88 -74 -147 -77
-204 -2 -41 1 -49 29 -73 25 -21 42 -26 83 -26 29 1 69 7 90 14 l37 14 0 -37
c-1 -44 -14 -69 -62 -110 -72 -63 -157 -65 -227 -5 -92 79 -79 230 32 394 47
68 121 159 126 154 2 -2 5 -15 7 -28z m-6566 -7 c0 -7 -9 -26 -20 -44 -21 -34
-109 -83 -162 -90 -16 -2 -44 -13 -63 -25 l-35 -22 0 27 c0 36 25 87 51 103
12 8 47 18 80 23 32 5 76 16 96 23 49 18 53 18 53 5z m-1043 -161 l93 -93 95
95 95 95 110 -110 109 -109 -101 -103 c-56 -57 -107 -103 -112 -103 -6 0 -51
41 -101 90 l-90 90 -90 -90 c-49 -49 -93 -90 -98 -90 -11 0 -207 203 -207 215
0 9 190 205 200 205 2 0 46 -42 97 -92z m5251 52 c20 -56 2 -109 -53 -150 -11
-8 -43 -33 -72 -57 -29 -23 -54 -39 -57 -34 -3 5 0 31 8 59 10 40 27 66 79
122 37 39 67 75 67 80 0 21 19 8 28 -20z m-4248 -19 c0 -6 -9 -25 -20 -44 -24
-40 -78 -78 -136 -95 -23 -7 -58 -23 -78 -37 -33 -22 -36 -23 -36 -6 0 86 33
123 130 145 40 9 85 23 99 31 31 17 41 18 41 6z m4280 -132 c17 -64 0 -101
-68 -145 -31 -20 -74 -53 -96 -73 l-38 -36 7 50 c4 28 12 59 17 70 8 15 147
162 165 174 1 0 7 -17 13 -40z m-4310 -4 c0 -49 -58 -106 -152 -149 -30 -14
-61 -32 -68 -41 -17 -20 -40 -19 -40 3 0 36 21 89 42 109 13 11 62 33 111 48
48 15 87 31 87 36 0 5 5 9 10 9 6 0 10 -7 10 -15z m5990 -90 l104 -106 -107
-107 -107 -107 -110 110 -110 110 102 102 c57 57 107 103 113 103 6 0 58 -47
115 -105z m-1656 -60 c11 -68 -13 -102 -105 -150 -25 -13 -60 -36 -78 -50
l-31 -27 0 34 c0 43 28 87 81 129 24 19 59 51 78 71 20 20 39 37 42 37 4 1 10
-19 13 -44z m-4354 16 c0 -23 -23 -68 -48 -94 -15 -16 -57 -44 -93 -62 -36
-18 -71 -40 -78 -49 -24 -29 -34 -18 -29 34 5 50 36 100 63 100 6 0 47 18 90
39 87 43 95 46 95 32z m5407 -83 c-2 -18 -19 -66 -36 -107 -36 -85 -39 -133
-11 -161 24 -24 48 -25 95 -6 42 18 48 10 29 -31 -20 -40 -51 -67 -93 -82 -52
-17 -70 -14 -102 18 -37 37 -38 77 -3 151 14 30 34 75 43 100 55 140 89 191
78 118z m-5447 -123 c-25 -41 -68 -79 -116 -101 -20 -10 -45 -30 -57 -46 -11
-15 -24 -28 -29 -28 -15 0 -9 105 8 128 8 12 50 40 92 61 42 22 86 46 97 54
19 15 20 14 23 -9 2 -13 -6 -40 -18 -59z m4404 68 c10 -32 -2 -94 -21 -115
-10 -11 -36 -29 -58 -39 -22 -10 -64 -32 -94 -49 l-54 -32 6 42 c7 51 47 97
124 140 29 17 59 39 65 50 16 25 25 25 32 3z m-4394 -188 c-7 -22 -33 -53 -67
-83 -31 -26 -72 -62 -91 -80 -19 -18 -37 -30 -40 -28 -3 3 -7 28 -10 56 -4 46
-2 52 29 81 18 17 58 43 88 59 31 16 65 35 76 44 17 13 20 13 23 0 2 -8 -2
-30 -8 -49z m4396 4 c-3 -30 -12 -59 -22 -70 -16 -17 -215 -121 -221 -115 -6
6 20 77 36 98 10 13 52 41 91 63 40 22 78 48 84 57 22 35 36 21 32 -33z m4214
-314 l-106 -106 -107 106 c-59 58 -107 108 -107 112 0 3 46 52 103 109 l102
103 110 -109 110 -110 -105 -105z m-4220 180 c0 -44 -23 -90 -51 -106 -12 -6
-53 -22 -92 -35 -39 -13 -81 -31 -94 -39 -21 -14 -23 -14 -23 2 0 10 10 36 23
58 18 33 37 47 105 80 45 22 90 48 99 58 26 25 33 21 33 -18z m-8942 -326
c-19 -10 -46 -33 -60 -51 -27 -36 -58 -118 -58 -155 0 -32 25 -78 52 -97 28
-20 92 -21 107 -2 25 30 -14 61 -106 85 -47 13 -48 14 -32 60 10 28 15 31 50
31 45 0 91 -20 132 -58 37 -35 29 -72 -26 -129 -68 -71 -191 -84 -238 -25 -18
23 -20 35 -15 90 3 35 9 68 13 75 4 7 8 17 9 22 11 59 72 130 138 161 57 26
87 20 34 -7z m4583 -130 c19 -7 35 -13 37 -14 2 -2 -19 -32 -47 -68 -27 -36
-52 -75 -56 -86 -10 -31 -21 -26 -39 19 -23 58 -20 75 20 120 41 45 39 44 85
29z m97 -59 c7 -45 -10 -91 -58 -162 -28 -40 -50 -81 -50 -90 0 -30 -20 -20
-36 17 -23 55 -18 89 21 137 19 24 49 62 67 86 34 45 51 49 56 12z m4122 -94
c-12 -26 -30 -51 -40 -56 -10 -5 -60 -14 -111 -20 -52 -6 -102 -13 -111 -16
-28 -9 -22 21 12 55 30 29 93 54 170 66 19 3 46 11 60 19 38 20 45 3 20 -48z
m-4076 -12 c17 -45 5 -97 -45 -192 -28 -53 -54 -98 -59 -100 -10 -4 -40 72
-40 102 0 13 11 38 24 57 14 19 42 60 63 91 41 62 48 67 57 42z m4027 -107
c-7 -19 -23 -45 -37 -58 -23 -22 -37 -25 -142 -30 -64 -3 -119 -5 -121 -3 -2
2 14 21 35 42 35 35 48 41 114 51 41 7 93 18 115 25 22 6 42 11 43 10 2 -2 -1
-18 -7 -37z m-3967 -28 c12 -59 6 -96 -23 -150 -16 -30 -35 -74 -42 -97 -7
-23 -17 -41 -23 -39 -6 2 -21 24 -34 49 -27 52 -24 64 39 158 21 30 43 67 50
83 16 35 25 34 33 -4z m3916 -77 c0 -20 -61 -102 -77 -104 -52 -5 -243 -2
-243 3 0 4 15 20 34 37 37 32 106 52 184 52 26 0 54 5 62 10 18 12 40 13 40 2z
m-3850 -38 c17 -45 11 -103 -20 -175 -16 -38 -31 -81 -33 -95 -4 -33 -11 -34
-36 -3 -48 61 -47 74 11 190 29 59 56 108 61 108 4 1 12 -11 17 -25z m76 -139
c14 -52 6 -114 -22 -181 -8 -18 -14 -50 -14 -71 l0 -38 -37 37 c-49 50 -49 99
1 193 20 38 36 79 36 92 0 41 23 20 36 -32z m3704 48 c0 -17 -41 -73 -63 -88
-21 -13 -44 -15 -146 -9 l-122 7 23 25 c35 37 80 52 165 53 43 1 89 5 103 9
34 11 40 11 40 3z m-8586 -29 c33 -9 66 -17 71 -19 48 -11 65 -19 65 -32 0 -9
-33 -50 -74 -91 -60 -61 -77 -74 -88 -64 -8 6 -41 18 -74 27 -48 12 -69 13
-114 4 -81 -17 -90 -23 -90 -70 0 -49 36 -89 98 -107 89 -27 268 -9 378 38 26
11 48 19 50 18 1 -2 -4 -30 -13 -63 -8 -33 -19 -79 -25 -103 -6 -23 -14 -44
-17 -46 -3 -2 -40 -7 -81 -11 -104 -9 -152 -22 -246 -65 -83 -38 -189 -105
-213 -134 -20 -24 -31 -10 -31 43 0 47 2 50 55 90 59 45 66 56 36 66 -30 9
-80 72 -111 137 l-28 59 51 86 c72 120 155 207 220 232 64 25 102 26 181 5z
m4962 -116 c21 -40 21 -108 0 -167 -9 -24 -16 -61 -16 -82 0 -22 -4 -39 -9
-39 -13 0 -81 81 -81 96 0 7 14 46 30 88 17 41 33 89 36 106 8 39 19 38 40 -2z
m3544 10 c0 -4 -17 -25 -38 -48 -43 -44 -68 -49 -152 -29 -25 6 -64 11 -87 10
-63 -1 -53 29 22 64 31 14 255 17 255 3z m559 -30 c7 -23 14 -48 17 -57 2 -9
22 -71 45 -138 l42 -123 196 -2 195 -3 -89 -66 c-50 -36 -121 -87 -158 -113
-37 -26 -66 -53 -63 -59 2 -7 12 -37 22 -67 9 -30 27 -84 39 -120 36 -103 54
-164 50 -169 -2 -2 -26 13 -52 32 -160 121 -267 190 -278 181 -62 -44 -246
-178 -267 -195 -25 -18 -28 -19 -28 -4 0 15 43 154 91 295 l19 55 -23 18 c-12
9 -69 51 -127 92 -58 41 -113 81 -122 88 -40 32 -21 37 164 39 l182 3 19 50
c10 28 29 84 42 125 34 110 59 180 66 180 3 0 11 -19 18 -42z m-4878 -170 l54
-168 191 0 c105 0 194 -3 197 -6 3 -4 -4 -14 -16 -24 -26 -20 -208 -145 -254
-174 -18 -12 -32 -29 -33 -38 0 -10 25 -93 56 -184 30 -92 53 -168 50 -171 -5
-5 -83 46 -121 79 -11 9 -58 44 -105 76 l-86 59 -86 -61 c-48 -34 -118 -84
-156 -113 -39 -28 -72 -49 -75 -47 -3 3 8 40 23 82 15 42 41 118 58 167 16 50
33 97 36 105 4 11 -39 45 -146 120 -84 58 -154 111 -156 117 -3 10 42 13 188
15 l192 3 25 65 c13 36 23 65 22 65 -1 0 13 44 30 98 17 53 31 105 31 114 0
45 31 -24 81 -179z m863 86 c30 -54 33 -97 10 -184 -9 -34 -13 -73 -10 -86 9
-33 -5 -30 -49 13 -36 35 -37 38 -31 88 3 28 15 77 26 110 11 32 20 69 20 82
0 12 2 23 4 23 2 0 16 -21 30 -46z m3365 0 c1 -1 -12 -21 -30 -43 -29 -36 -37
-41 -75 -41 -24 0 -69 7 -101 15 -31 8 -72 15 -90 15 -37 0 -41 6 -15 27 46
38 74 43 192 37 63 -4 117 -8 119 -10z m-3277 -81 c33 -37 42 -97 29 -187 -7
-47 -10 -94 -6 -105 10 -32 -10 -25 -49 15 -46 48 -50 64 -32 127 8 29 18 78
22 110 7 61 12 67 36 40z m3072 -18 c36 -9 78 -12 92 -9 23 6 25 5 16 -12 -15
-28 -53 -61 -82 -72 -19 -7 -45 -4 -105 14 -44 13 -92 27 -107 30 -39 9 -35
22 15 44 51 24 86 25 171 5z m-2962 -92 c20 -33 24 -54 28 -166 3 -70 4 -127
2 -127 -1 0 -20 12 -42 26 -46 31 -55 55 -46 125 3 27 9 73 12 102 6 56 11 77
18 77 2 0 15 -17 28 -37z m2834 -8 c27 -8 70 -15 97 -15 26 0 47 -4 47 -9 0
-12 -67 -70 -95 -83 -19 -9 -39 -3 -112 31 -50 22 -97 41 -106 41 -28 0 -19
20 16 35 42 19 92 19 153 0z m-2733 -63 c35 -38 47 -89 47 -198 l0 -106 -32
20 c-18 12 -42 32 -52 46 -18 23 -18 31 -8 108 7 46 12 98 12 116 0 36 9 40
33 14z m2642 -35 c22 -12 60 -23 85 -27 l45 -5 -44 -33 c-24 -17 -55 -32 -69
-32 -14 0 -62 18 -108 40 -46 22 -90 40 -98 40 -17 0 -31 18 -22 28 11 10 89
18 131 14 22 -3 58 -14 80 -25z m-782 -43 c24 -18 51 -50 68 -84 34 -66 36
-80 8 -80 -14 0 -55 34 -115 96 -52 52 -94 98 -94 101 0 16 97 -8 133 -33z
m122 7 c57 -33 92 -110 63 -139 -23 -23 -47 -13 -69 31 -12 23 -35 61 -50 84
-16 23 -29 45 -29 48 0 10 51 -4 85 -24z m-1868 -13 c32 -35 43 -63 42 -105
-1 -31 -8 -44 -40 -72 l-39 -33 0 116 c0 64 4 116 8 116 5 0 18 -10 29 -22z
m522 -4 c45 -9 94 -60 130 -138 34 -70 33 -86 -2 -86 -35 0 -63 25 -116 103
-27 40 -58 80 -70 91 -35 32 -12 44 58 30z m1079 -8 c35 -19 96 -83 116 -123
17 -33 30 -46 20 -18 -7 18 -4 18 33 4 l28 -12 -30 -8 c-16 -4 -40 -11 -53
-14 -19 -6 -21 -4 -16 11 4 11 4 16 -1 12 -11 -10 -62 18 -120 67 -27 23 -65
50 -82 59 -18 9 -33 21 -33 26 0 15 108 12 138 -4z m405 -11 c42 -29 47 -49
16 -65 -29 -16 -46 -7 -54 29 -4 17 -11 33 -16 36 -13 9 -11 25 4 25 7 0 29
-11 50 -25z m392 -3 c33 -16 73 -32 88 -36 37 -9 30 -26 -23 -55 l-43 -24 -51
26 c-28 15 -70 37 -94 51 -23 13 -53 27 -65 30 -22 6 -22 7 -3 21 33 25 122
19 191 -13z m-1716 4 c43 -23 87 -79 106 -136 20 -60 12 -75 -34 -65 -27 6
-37 19 -81 108 -27 55 -50 102 -50 104 0 8 34 2 59 -11z m-279 -21 c30 -15
150 -148 150 -165 0 -13 -4 -12 -34 1 -20 10 -28 9 -41 -5 -12 -12 -21 -13
-35 -6 -34 18 -33 30 2 24 l33 -6 -35 29 c-19 15 -59 49 -88 76 -29 26 -57 47
-62 47 -6 0 -10 5 -10 10 0 15 88 12 120 -5z m415 -6 c55 -26 85 -65 88 -116
2 -37 1 -38 -33 -41 -35 -3 -35 -3 -59 65 -13 37 -31 78 -39 91 -18 27 -13 27
43 1z m660 -15 c30 -14 145 -115 145 -127 0 -12 -31 -15 -70 -6 -25 6 -70 30
-104 55 -33 25 -73 52 -88 60 -16 8 -26 19 -23 24 10 16 104 12 140 -6z
m-1375 -9 c0 -8 -4 -15 -9 -15 -5 0 -11 7 -15 15 -3 9 0 15 9 15 8 0 15 -7 15
-15z m2163 -24 c40 -21 88 -42 105 -46 18 -3 32 -10 32 -14 0 -4 -18 -18 -41
-30 -55 -31 -88 -24 -184 38 -42 28 -84 51 -91 51 -24 0 -15 18 14 28 51 19
89 13 165 -27z m-1985 12 c21 -10 57 -37 81 -61 l43 -44 -31 -29 c-36 -33 -36
-33 -61 -19 -13 7 -19 6 -24 -5 -7 -19 -57 -19 -133 0 -32 8 -79 16 -105 17
-54 3 -56 13 -8 46 57 38 160 24 217 -30 13 -12 23 -16 23 -10 0 7 12 9 34 5
19 -3 36 -1 40 6 4 6 2 11 -5 11 -6 0 -55 19 -108 41 -53 23 -112 42 -131 42
-19 0 -26 2 -15 4 11 3 22 9 25 13 8 11 62 28 93 29 16 1 45 -7 65 -16z m705
-24 c49 -40 48 -59 -1 -59 -36 0 -39 3 -54 45 -16 42 -16 45 0 45 10 0 34 -14
55 -31z m352 -3 c40 -17 165 -104 165 -115 0 -4 -16 -13 -36 -20 -45 -16 -74
-6 -164 59 -36 26 -76 51 -89 55 -24 7 -24 8 -6 21 24 18 87 18 130 0z m775
-36 c19 -11 63 -33 98 -51 34 -17 62 -33 62 -35 0 -11 -104 -52 -119 -47 -9 4
-52 33 -97 65 -44 32 -86 58 -92 58 -13 0 -16 13 -5 23 14 15 119 6 153 -13z
m-917 -14 c18 -7 67 -36 110 -64 77 -50 78 -51 55 -65 -42 -27 -76 -29 -117
-7 -22 11 -43 25 -46 31 -4 6 -34 31 -67 55 -58 42 -59 44 -37 53 34 14 65 13
102 -3z m457 -6 c12 -8 11 -10 -7 -10 -12 0 -25 5 -28 10 -8 13 15 13 35 0z
m320 -30 c12 -7 43 -28 68 -47 25 -19 58 -37 73 -40 16 -3 29 -9 29 -13 0 -15
-68 -40 -107 -40 -34 0 -49 9 -120 72 -45 40 -80 75 -78 78 6 11 111 3 135
-10z m-852 -49 c31 -23 75 -51 96 -62 37 -20 39 -22 21 -35 -24 -18 -78 -28
-110 -20 -13 3 -50 31 -82 62 -31 31 -68 63 -81 72 -32 21 -10 34 51 29 36 -3
61 -14 105 -46z m412 39 c0 -5 -4 -10 -10 -10 -5 0 -10 5 -10 10 0 6 5 10 10
10 6 0 10 -4 10 -10z m275 -24 c19 -8 62 -37 95 -65 34 -28 70 -51 81 -51 31
0 22 -18 -17 -35 -74 -31 -91 -24 -181 72 -46 48 -83 89 -83 90 0 9 76 1 105
-11z m535 -6 c0 -5 -4 -10 -10 -10 -5 0 -10 5 -10 10 0 6 5 10 10 10 6 0 10
-4 10 -10z m-1417 -14 c18 -7 53 -32 80 -56 26 -23 64 -50 85 -60 l37 -18 -28
-11 c-62 -24 -104 -24 -141 -1 -20 12 -36 25 -36 29 0 4 -22 35 -50 69 l-50
62 35 0 c20 0 50 -6 68 -14z m764 -18 c18 -11 49 -39 68 -63 20 -24 53 -51 73
-61 l37 -18 -46 -14 c-68 -22 -113 -10 -147 37 -27 39 -84 129 -91 145 -6 14
72 -4 106 -26z m-1520 -15 c62 -25 63 -26 46 -45 -17 -19 -17 -19 -25 1 -6 18
-9 19 -35 6 -22 -11 -198 -21 -265 -16 -14 2 52 62 84 76 43 20 110 12 195
-22z m153 28 c0 -5 -7 -11 -15 -15 -9 -3 -15 0 -15 9 0 8 7 15 15 15 8 0 15
-4 15 -9z m408 0 c9 -4 38 -18 64 -29 32 -15 59 -38 85 -72 21 -28 50 -56 65
-63 16 -6 28 -15 28 -18 0 -9 -54 -19 -101 -19 -48 0 -61 13 -118 113 -25 42
-48 77 -53 77 -4 0 -8 5 -8 10 0 12 15 13 38 1z m1572 -30 c0 -72 -70 -204
-99 -187 -16 11 -13 26 5 26 12 0 15 6 10 26 -4 15 -4 51 0 80 5 46 11 56 38
72 37 23 46 20 46 -17z m-1795 23 c25 -6 67 -65 86 -118 8 -22 27 -53 44 -69
l30 -30 -40 6 c-22 4 -50 7 -61 7 -42 0 -65 32 -88 123 -24 93 -24 96 29 81z
m155 -22 c14 -10 44 -47 67 -82 23 -34 54 -71 68 -80 l26 -17 -40 -7 c-21 -3
-45 -4 -53 -2 -7 2 -25 7 -40 10 -19 4 -34 19 -48 46 -11 21 -20 44 -20 51 0
6 -11 34 -25 61 l-25 51 32 -7 c18 -3 44 -14 58 -24z m897 -1 c12 -9 40 -44
62 -78 26 -41 50 -65 66 -69 49 -12 16 -34 -52 -34 -64 0 -82 15 -125 106 -32
69 -37 88 -27 95 16 10 46 2 76 -20z m-1297 14 c0 -10 -41 -25 -52 -19 -8 5
-5 10 8 15 22 9 44 11 44 4z m173 -37 c8 -24 20 -60 27 -80 6 -20 18 -42 26
-48 21 -19 17 -32 -8 -25 -83 23 -110 38 -124 71 -8 18 -14 54 -14 79 l0 45
39 0 c36 0 39 -3 54 -42z m1941 -20 c26 -89 -7 -172 -90 -227 -43 -30 -44 -30
-55 -10 -13 26 -5 36 16 19 20 -17 28 -8 32 38 2 20 17 74 33 120 16 45 30 84
30 87 0 3 0 10 0 15 0 6 4 10 10 10 5 0 16 -24 24 -52z m-918 0 c10 -24 34
-62 52 -85 17 -24 32 -45 32 -48 0 -12 -84 -4 -111 11 -30 15 -68 80 -69 115
0 19 37 48 61 48 9 1 24 -16 35 -41z m-1141 -20 c6 -26 17 -54 25 -62 11 -14
8 -15 -28 -2 -59 21 -82 35 -82 50 0 18 48 68 62 64 6 -2 16 -25 23 -50z
m1855 0 c-18 -43 -17 -43 -35 -28 -19 16 -19 31 0 24 9 -4 15 0 15 8 0 15 21
40 28 33 3 -2 -1 -19 -8 -37z m-829 -28 c12 -28 29 -55 38 -60 25 -14 7 -22
-33 -14 -46 8 -101 45 -101 67 0 13 48 50 72 56 1 1 12 -22 24 -49z m-1183 28
c-3 -7 -15 -18 -27 -24 -13 -7 -18 -13 -11 -16 6 -2 8 -11 5 -21 -11 -28 -25
-19 -25 16 0 25 6 37 23 45 30 14 39 14 35 0z m2032 -22 c0 -8 3 -23 7 -33 6
-16 5 -16 -10 -4 -18 15 -23 51 -7 51 6 0 10 -6 10 -14z m-2111 -5 c12 -8 13
-12 1 -25 -16 -21 -55 -38 -155 -69 -44 -14 -88 -28 -97 -32 -49 -19 34 97 86
120 35 15 144 19 165 6z m1152 -28 c13 -15 11 -16 -11 -10 -14 4 -33 7 -42 7
-10 0 -18 5 -18 10 0 17 57 11 71 -7z m-1151 -38 c0 -13 -36 -35 -57 -35 -8 0
40 48 50 49 4 1 7 -6 7 -14z m2360 -45 c0 -67 -19 -110 -66 -147 -47 -36 -84
-57 -91 -49 -11 11 19 71 79 157 35 49 66 89 71 89 4 0 7 -23 7 -50z m-180 -2
c0 -39 -1 -41 -16 -26 -11 11 -14 25 -10 42 10 40 26 31 26 -16z m-2239 -17
c-6 -11 -30 -35 -53 -54 -42 -33 -163 -117 -170 -117 -2 0 -2 19 0 42 4 33 13
50 47 83 45 43 83 59 148 63 35 3 37 1 28 -17z m49 5 c0 -8 -4 -18 -10 -21 -5
-3 -10 -4 -10 -1 0 2 -3 11 -6 20 -4 11 -1 16 10 16 9 0 16 -6 16 -14z m-40
-43 c0 -9 -8 -25 -17 -36 -17 -19 -17 -19 5 -13 17 6 22 3 22 -12 0 -30 -11
-33 -31 -8 -16 20 -17 28 -6 55 12 33 27 41 27 14z m2264 -35 c-4 -6 -10 -25
-14 -42 l-6 -31 -13 23 c-11 20 -10 27 5 43 19 21 40 26 28 7z m-2304 -47 c0
-19 -146 -221 -160 -221 -15 0 -20 51 -10 91 14 50 59 101 113 128 52 26 57
26 57 2z m2454 -72 c-15 -34 -50 -65 -109 -98 -18 -9 -17 -10 13 -11 17 0 32
4 32 8 0 5 6 9 13 9 6 0 22 3 35 7 28 9 28 -3 2 -53 -20 -39 -84 -81 -126 -81
-10 0 -25 -4 -32 -9 -21 -13 84 -24 108 -11 17 9 19 8 13 -7 -11 -31 -55 -72
-90 -84 -21 -6 -58 -8 -91 -5 -56 7 -152 42 -152 57 0 21 55 49 97 49 27 0 42
4 38 10 -3 6 -15 10 -26 10 -26 0 -24 14 9 51 21 24 40 33 82 39 l55 9 -52 -3
c-45 -3 -53 0 -53 15 0 10 5 21 10 24 6 3 10 -1 10 -9 0 -22 17 -20 25 2 6 20
57 64 115 99 20 12 47 34 60 48 l25 27 3 -28 c2 -15 -4 -44 -14 -65z m-2434
-4 c-17 -21 -34 -19 -25 3 7 16 12 35 15 57 1 6 6 -3 12 -18 7 -20 7 -32 -2
-42z m2254 33 c12 -17 13 -24 3 -30 -24 -15 -37 -8 -37 22 0 35 13 38 34 8z
m-2224 -54 c0 -16 -16 -19 -25 -4 -8 13 4 32 16 25 5 -4 9 -13 9 -21z m2223
-16 c-13 -26 -18 -29 -21 -15 -4 19 14 47 29 47 5 0 2 -15 -8 -32z m-2288
-123 c-21 -63 -33 -83 -53 -93 -33 -15 -43 -5 -44 46 0 49 36 116 84 158 l33
27 3 -28 c2 -16 -8 -65 -23 -110z m1773 104 c23 -8 35 -22 51 -62 12 -29 33
-74 47 -100 27 -51 29 -80 3 -56 -8 8 -33 23 -55 35 -25 14 -56 46 -87 90 -26
38 -59 74 -72 80 -14 5 -22 13 -19 17 11 11 97 8 132 -4z m173 -18 c10 -13 23
-42 29 -64 5 -23 17 -64 25 -91 8 -28 13 -52 10 -54 -2 -2 -23 7 -47 20 -36
19 -50 37 -85 107 -24 46 -51 90 -60 98 -16 12 -10 14 46 10 52 -3 67 -8 82
-26z m135 -16 c21 -13 44 -68 44 -103 0 -15 -50 -61 -67 -62 -11 0 -28 39 -53
121 -6 20 -19 44 -30 54 -11 10 -17 21 -15 25 6 10 91 -15 121 -35z m-2016 -6
c0 -10 -5 -21 -11 -25 -8 -4 -7 -9 2 -15 11 -6 11 -11 1 -21 -9 -9 -12 -9 -13
3 0 7 -2 34 -5 58 -4 38 -2 42 11 31 8 -7 15 -21 15 -31z m535 25 c35 -16 68
-77 80 -145 3 -19 13 -47 21 -63 18 -36 18 -35 -7 -29 -11 3 -18 11 -15 18 2
7 -7 18 -20 24 -15 7 -23 7 -19 1 10 -16 -11 -12 -25 5 -7 8 -9 15 -5 15 5 0
1 8 -7 18 -8 9 -30 43 -48 75 -17 32 -41 63 -51 70 -10 6 -19 15 -19 19 0 14
81 8 115 -8z m-118 -16 c20 -22 73 -130 73 -149 0 -5 -9 -9 -19 -9 -11 0 -23
-5 -26 -11 -5 -7 -13 -4 -26 7 -10 9 -16 20 -13 25 2 4 -4 13 -15 19 -11 5
-34 30 -52 55 -18 25 -45 49 -63 55 -45 16 -17 30 60 30 50 0 64 -4 81 -22z
m276 -17 c25 -21 39 -50 44 -85 1 -15 8 -46 13 -67 19 -71 -10 -79 -64 -19
-20 22 -36 43 -37 48 -4 38 -41 126 -58 136 -6 4 -11 11 -11 15 0 13 93 -9
113 -28z m889 20 c13 -11 39 -46 56 -78 17 -32 40 -68 51 -80 27 -29 17 -33
-43 -18 -40 10 -62 26 -115 80 -36 37 -77 71 -90 77 -42 15 -3 35 75 37 27 1
50 -6 66 -18z m-1299 -49 c15 -15 42 -49 60 -77 17 -27 36 -53 42 -57 17 -12
-68 3 -101 18 -17 8 -53 32 -80 54 -27 23 -61 44 -76 47 -37 7 -35 19 5 32 81
25 109 22 150 -17z m1816 27 c38 -13 38 -19 6 -49 -23 -22 -25 -22 -25 -4 0
11 -7 30 -16 42 -17 25 -11 27 35 11z m-2060 -12 c6 -8 8 -16 5 -20 -10 -9
-34 4 -34 19 0 18 14 18 29 1z m783 -19 c29 -20 52 -81 46 -121 -2 -17 -11
-23 -39 -25 l-36 -3 -17 63 c-10 35 -24 73 -31 84 -8 12 -11 24 -8 28 9 9 55
-5 85 -26z m626 4 c15 -16 51 -56 80 -90 l53 -62 -41 0 c-50 0 -99 24 -168 84
-30 25 -58 47 -63 47 -5 1 -13 2 -19 3 -21 2 -8 22 23 33 59 21 106 16 135
-15z m-1336 -31 c13 -5 48 -32 78 -60 l54 -51 -21 -20 c-23 -21 -53 -27 -53
-11 0 5 -17 15 -37 21 -21 7 -55 23 -77 37 -21 14 -54 25 -72 26 -27 1 -31 4
-22 15 17 20 80 51 105 52 12 0 32 -4 45 -9z m835 -17 c12 -8 27 -23 33 -34
12 -22 11 -23 -43 -34 -29 -7 -36 4 -53 71 -6 23 -5 25 17 18 13 -4 34 -13 46
-21z m336 14 c12 -6 53 -40 91 -75 38 -34 73 -63 78 -63 5 0 6 -4 3 -10 -3 -5
-30 -10 -60 -10 -44 0 -62 6 -106 36 -30 20 -73 47 -96 61 -24 14 -43 28 -43
33 0 10 58 32 103 39 5 0 18 -4 30 -11z m3067 -42 c0 -33 -1 -34 -51 -38 -88
-9 -84 9 -84 -381 0 -339 0 -343 24 -395 62 -136 231 -201 356 -136 80 42 114
72 143 127 l27 52 3 330 c2 181 0 340 -3 352 -6 27 -53 53 -95 53 -28 0 -30 3
-30 35 l0 35 210 0 210 0 0 -35 c0 -33 -2 -35 -35 -35 -54 0 -84 -19 -95 -59
-6 -20 -10 -167 -10 -336 0 -337 -8 -389 -68 -478 -130 -189 -457 -233 -677
-92 -73 47 -135 126 -151 192 -4 15 -10 189 -13 385 -4 260 -9 360 -18 369 -7
7 -37 14 -68 17 -55 4 -55 5 -55 38 l0 34 240 0 240 0 0 -34z m-6731 -73 c29
-49 99 -164 156 -258 57 -93 136 -225 177 -292 l73 -121 3 301 c1 200 -1 311
-9 328 -12 31 -47 49 -94 49 -34 0 -35 1 -35 40 l0 40 200 0 200 0 0 -40 c0
-39 -1 -40 -34 -40 -48 0 -65 -8 -81 -41 -13 -23 -15 -106 -15 -504 l0 -475
-67 0 -68 1 -96 162 c-53 89 -141 234 -194 322 -54 88 -118 194 -142 235 -53
91 -106 177 -113 184 -3 2 -4 -175 -2 -394 l2 -399 27 -20 c16 -13 40 -21 64
-21 38 0 39 -1 39 -35 l0 -35 -205 0 -205 0 0 35 c0 33 2 35 35 35 54 0 84 19
95 59 6 21 10 203 10 444 0 394 -1 408 -20 427 -15 15 -33 20 -70 20 l-50 0 0
40 0 40 183 0 184 0 52 -87z m3541 46 c19 -12 56 -39 81 -60 25 -21 59 -43 74
-49 42 -16 16 -35 -49 -35 -48 0 -61 5 -149 64 -53 35 -94 68 -91 73 5 8 59
26 84 27 8 1 31 -9 50 -20z m-1080 -64 c47 -30 83 -55 80 -56 -3 0 -38 -3 -78
-6 -60 -4 -85 -1 -133 17 -32 12 -70 20 -84 18 -32 -7 -32 2 3 34 69 65 102
64 212 -7z m430 35 c0 -5 -9 -10 -21 -10 -11 0 -17 5 -14 10 3 6 13 10 21 10
8 0 14 -4 14 -10z m1904 -28 c42 -45 43 -85 6 -178 -18 -43 -36 -83 -40 -87
-4 -4 -17 16 -30 45 -22 50 -22 57 -11 138 11 78 23 110 40 110 4 0 20 -13 35
-28z m-1382 0 c14 -9 54 -38 87 -64 33 -25 66 -49 73 -51 24 -10 -15 -27 -60
-27 -35 0 -57 9 -114 48 -39 26 -84 56 -101 66 -28 18 -29 20 -11 33 25 18 94
16 126 -5z m-758 -1 c3 -5 -1 -12 -10 -15 -22 -9 -24 -8 -24 9 0 16 25 21 34
6z m1771 -11 c3 -5 0 -10 -7 -10 -7 0 -24 -3 -38 -7 -22 -6 -24 -5 -11 10 15
19 46 23 56 7z m-92 -26 c-5 -13 0 -14 28 -9 19 3 76 -2 132 -13 54 -11 108
-17 120 -14 l22 5 -20 -22 c-49 -56 -122 -65 -208 -27 -30 13 -57 28 -61 34
-3 5 -27 7 -53 5 -46 -5 -47 -5 -30 13 15 16 20 17 40 5 20 -13 21 -13 8 2
-11 14 -11 20 -1 32 15 18 31 10 23 -11z m504 4 c-3 -8 -6 -5 -6 6 -1 11 2 17
5 13 3 -3 4 -12 1 -19z m-2136 -2 c-9 -10 -6 -17 11 -28 13 -9 45 -57 72 -107
26 -51 54 -95 62 -98 29 -11 13 -26 -22 -20 -76 13 -125 73 -155 195 -11 46
-11 55 1 62 24 15 45 13 31 -4z m561 0 c14 -8 54 -37 87 -64 33 -28 69 -55 78
-61 16 -9 16 -12 3 -21 -22 -15 -78 -12 -115 6 -18 8 -65 43 -105 76 -63 53
-70 63 -54 69 31 12 77 10 106 -5z m1638 -58 c37 -47 41 -58 37 -93 -2 -23
-21 -68 -44 -105 -21 -36 -43 -74 -47 -85 -7 -20 -8 -20 -22 -1 -19 27 -18 47
2 39 14 -5 15 -3 5 15 -7 12 -16 22 -21 22 -13 0 -2 54 27 129 17 43 23 76 20
98 -3 18 -4 33 -2 33 2 0 22 -24 45 -52z m-2577 11 c135 -50 127 -44 82 -63
-33 -14 -62 -16 -165 -12 -69 3 -125 7 -125 9 0 12 53 70 75 82 35 20 40 19
133 -16z m295 19 c5 -7 20 -42 31 -77 12 -36 28 -75 36 -88 8 -12 15 -25 15
-28 0 -11 -31 -4 -59 13 -42 25 -67 60 -81 112 -11 41 -10 46 10 62 26 21 34
22 48 6z m202 -1 c0 -6 12 -20 28 -30 15 -11 41 -37 57 -60 17 -23 50 -63 74
-89 24 -26 40 -48 35 -49 -97 -11 -163 42 -218 176 -14 33 -25 52 -26 42 0
-15 -3 -15 -20 -5 -30 19 -25 23 25 26 30 1 45 -3 45 -11z m307 2 c-1 -4 22
-26 51 -49 28 -23 52 -45 52 -49 0 -4 18 -17 40 -30 22 -12 40 -26 40 -32 0
-5 -26 -9 -59 -9 -51 0 -64 4 -102 34 -51 39 -131 131 -122 140 8 8 102 4 100
-5z m715 -8 c-7 -4 1 -14 17 -25 15 -10 38 -35 51 -55 14 -20 44 -62 68 -93
47 -63 44 -68 -29 -48 -44 12 -80 49 -113 117 -37 73 -43 110 -20 115 23 5 40
-2 26 -11z m378 -1 c-12 -22 -25 -26 -36 -9 -7 12 12 29 34 29 10 0 10 -5 2
-20z m-1280 1 c0 -5 11 -12 24 -15 14 -3 61 -42 105 -86 44 -44 85 -80 91 -80
23 0 8 -19 -17 -22 -37 -5 -92 10 -125 33 -28 20 -118 148 -118 168 0 6 9 11
20 11 11 0 20 -4 20 -9z m1160 0 c0 -6 -5 -13 -11 -17 -6 -4 9 -14 34 -23 25
-9 61 -29 79 -44 69 -58 111 -87 126 -87 13 0 13 -3 4 -12 -7 -7 -36 -12 -65
-12 -46 0 -60 5 -96 33 -36 29 -131 141 -131 155 0 4 12 7 53 15 4 0 7 -3 7
-8z m582 -53 c-2 -35 -6 -65 -8 -67 -2 -2 -10 2 -19 9 -9 7 -13 15 -10 18 3 3
-1 13 -9 21 -13 15 -12 20 10 49 14 17 29 32 33 32 4 0 5 -28 3 -62z m-1797
41 c11 -17 0 -20 -21 -4 -17 13 -17 14 -2 15 9 0 20 -5 23 -11z m125 1 c0 -5
-4 -10 -9 -10 -6 0 -13 5 -16 10 -3 6 1 10 9 10 9 0 16 -4 16 -10z m956 -7
c11 -15 16 -16 33 -6 11 7 23 9 26 4 3 -5 -1 -11 -9 -13 -10 -2 15 -35 70 -93
46 -49 84 -91 84 -92 0 -2 -19 -3 -41 -3 -49 0 -96 26 -132 73 -22 30 -77 130
-77 142 0 12 34 3 46 -12z m-187 -43 c12 -28 35 -73 52 -101 16 -28 28 -54 25
-56 -9 -9 -71 17 -99 42 -26 24 -66 96 -67 122 0 10 41 39 61 42 4 1 16 -22
28 -49z m131 35 c16 -19 0 -19 -26 0 -16 12 -16 14 -3 15 9 0 22 -7 29 -15z
m265 5 c4 -6 -5 -10 -19 -10 -14 0 -26 5 -26 10 0 6 9 10 19 10 11 0 23 -4 26
-10z m137 -20 c29 -11 69 -29 88 -39 19 -10 49 -22 65 -26 l30 -8 -40 -18
c-52 -24 -79 -24 -132 3 -55 27 -125 87 -117 99 9 15 50 10 106 -11z m-1779
-51 c10 -28 17 -53 15 -55 -2 -2 -21 8 -41 22 -38 25 -46 51 -25 72 22 22 33
13 51 -39z m1148 -27 c15 -34 23 -62 17 -62 -24 0 -80 35 -99 62 -12 16 -20
30 -18 32 28 21 55 36 63 33 4 -1 21 -31 37 -65z m-1461 3 c14 -3 49 -9 78
-12 28 -3 52 -10 52 -14 0 -5 -19 -21 -42 -36 -40 -27 -47 -28 -145 -25 -59 1
-112 -2 -123 -8 -36 -19 -23 17 25 66 47 50 55 51 155 29z m1338 -8 c3 -15 0
-16 -23 -5 -18 8 -22 14 -13 20 18 11 32 5 36 -15z m1461 -44 c6 -12 11 -42
11 -68 0 -51 -12 -60 -97 -72 -54 -7 -54 -1 -3 86 22 37 40 80 40 95 l0 29 19
-24 c10 -13 23 -34 30 -46z m-2731 -96 c-40 -56 -53 -60 -174 -42 -60 9 -113
20 -117 24 -5 5 3 18 18 29 24 19 38 21 160 19 l133 -2 -20 -28z m2776 8 c3
-8 1 -15 -4 -15 -6 0 -10 7 -10 15 0 8 2 15 4 15 2 0 6 -7 10 -15z m79 -65
c45 -36 67 -80 57 -120 -4 -19 -8 -30 -9 -25 -1 6 -5 4 -9 -3 -5 -7 -24 -14
-43 -15 -19 -1 -37 -5 -40 -10 -3 -4 -20 -9 -37 -10 -18 -1 -32 -5 -32 -9 0
-4 -12 -7 -27 -6 -16 1 -45 -2 -65 -6 -24 -5 -38 -5 -38 2 0 6 -8 8 -18 5 -26
-6 -50 26 -52 72 -5 82 -6 81 63 95 34 7 91 21 127 30 86 23 93 23 123 0z
m-3074 -6 c53 -8 114 -18 136 -22 l40 -7 3 -55 c3 -73 -4 -82 -69 -82 -61 -1
-157 10 -179 19 -8 3 -22 7 -30 8 -76 10 -88 21 -80 75 3 25 50 80 67 80 9 0
60 -7 112 -16z m-207 -132 c4 -15 28 -23 119 -40 63 -12 137 -24 165 -27 46
-6 52 -9 62 -39 7 -18 12 -43 12 -57 -1 -38 -42 -130 -90 -197 -40 -58 -60
-75 -60 -52 0 6 -6 9 -12 8 -9 -2 -12 7 -9 27 3 27 2 28 -16 15 -10 -7 -28
-25 -39 -38 -20 -22 -52 -23 -39 -1 3 5 -2 6 -11 2 -14 -5 -16 -2 -10 20 8 33
0 34 -31 5 -13 -12 -25 -19 -27 -17 -5 5 6 56 19 94 3 11 -6 -1 -22 -27 -15
-27 -31 -48 -34 -48 -10 0 -20 76 -13 97 3 10 -4 0 -16 -22 -33 -62 -43 -67
-36 -15 l6 45 -16 -37 c-29 -68 -44 -49 -45 56 -1 104 21 166 79 222 52 49 58
52 64 26z m3442 -133 c18 -58 21 -215 6 -239 -9 -14 -16 -3 -43 70 -3 8 -3 -7
0 -35 6 -58 -8 -54 -30 9 l-13 38 -1 -52 c-1 -73 -16 -83 -41 -26 -12 25 -24
46 -27 46 -3 0 -2 -8 3 -17 12 -23 23 -93 14 -93 -3 0 -19 12 -35 28 l-29 27
7 -35 c7 -30 6 -33 -8 -22 -12 11 -15 10 -13 -4 2 -27 -19 -26 -34 2 -8 14
-23 30 -33 36 -16 8 -18 6 -17 -14 3 -37 1 -41 -14 -29 -12 10 -14 8 -9 -11 9
-44 -45 31 -91 127 -51 104 -60 152 -41 198 l13 33 84 2 c46 1 94 6 108 11 14
5 54 17 90 27 36 9 70 21 75 26 16 15 62 -46 79 -103z m-780 -389 c-7 -80 -16
-163 -19 -186 -6 -40 -5 -41 37 -58 24 -10 77 -33 118 -51 41 -18 95 -40 120
-51 100 -41 118 -32 -226 -111 l-70 -16 -12 -162 c-7 -88 -16 -173 -20 -189
-7 -27 -8 -26 -48 36 -56 86 -118 186 -140 226 -10 17 -22 32 -27 32 -4 0 -45
-9 -90 -19 -191 -45 -270 -62 -275 -57 -5 5 60 85 126 156 13 14 45 49 72 79
l48 54 -17 26 c-30 43 -170 276 -176 294 -5 12 12 8 77 -19 45 -20 99 -41 118
-49 19 -7 62 -25 94 -41 l59 -27 30 34 c113 129 146 166 180 201 20 22 37 45
37 51 0 7 3 7 9 2 5 -6 3 -70 -5 -155z m-1909 0 c61 -70 115 -124 124 -124 9
1 90 33 181 72 91 39 167 69 169 67 2 -2 -30 -57 -70 -122 -41 -65 -80 -129
-87 -143 -7 -14 -20 -32 -28 -41 -19 -21 -18 -28 9 -54 82 -83 230 -256 224
-262 -4 -4 -51 6 -285 58 -51 12 -94 20 -96 18 -1 -2 -35 -60 -76 -129 -95
-160 -114 -189 -121 -190 -5 0 -25 210 -32 335 l-2 40 -70 17 c-39 9 -125 29
-192 45 -70 15 -117 31 -110 35 7 4 46 22 87 39 41 17 99 42 127 55 29 13 63
26 75 29 13 4 31 12 42 20 18 14 18 19 2 190 -10 96 -14 180 -10 186 8 13 0
21 139 -141z"/>
<path d="M8101 6717 c-6 -6 -11 -16 -11 -22 0 -7 -15 -20 -34 -30 -19 -10 -39
-29 -45 -42 -6 -13 -18 -26 -26 -29 -11 -5 -5 -12 22 -26 32 -17 48 -19 120
-13 46 4 83 11 83 16 0 18 -43 94 -70 126 -20 23 -31 28 -39 20z"/>
<path d="M8381 6562 c-36 -18 -66 -34 -67 -35 -2 -2 10 -57 25 -122 16 -66 32
-137 35 -157 4 -21 9 -38 11 -38 20 0 142 34 181 51 84 36 154 72 154 80 0 7
-29 44 -94 115 -58 66 -106 52 -106 -30 0 -48 -14 -61 -25 -25 -5 15 -9 18
-15 9 -4 -6 -16 -10 -26 -8 -15 3 -18 10 -16 36 3 30 2 32 -21 27 -22 -6 -25
-3 -30 27 -6 40 5 55 44 63 30 7 34 13 21 30 -4 6 -31 -2 -71 -23z"/>
<path d="M8700 6576 c0 -13 8 -30 17 -37 15 -13 16 -11 10 11 -4 14 -7 31 -7
38 0 6 -4 12 -10 12 -5 0 -10 -11 -10 -24z"/>
<path d="M8740 6573 c0 -7 5 -13 11 -13 7 0 9 -12 6 -32 -4 -24 2 -44 22 -75
14 -24 31 -43 36 -43 6 0 35 23 65 50 l55 51 -65 36 c-66 37 -130 50 -130 26z"/>
<path d="M8155 6498 c-38 -5 -80 -7 -92 -5 -32 6 -29 -18 4 -49 26 -24 27 -27
10 -39 -14 -10 -15 -14 -4 -18 13 -5 28 -51 33 -101 2 -25 -23 -86 -36 -86 -6
0 -10 -7 -10 -15 0 -11 12 -15 53 -15 53 1 186 15 192 22 9 10 -62 319 -74
317 -3 -1 -37 -6 -76 -11z"/>
<path d="M8937 6402 c-37 -37 -70 -70 -73 -73 -3 -4 13 -44 35 -90 22 -46 51
-113 66 -149 34 -85 105 -335 105 -369 0 -14 4 -42 9 -61 5 -19 15 -67 21
-107 l12 -71 96 33 c175 61 356 149 395 193 18 19 17 22 -16 90 -56 113 -144
256 -179 293 -8 8 -24 28 -36 44 -46 59 -213 224 -277 271 -94 70 -83 71 -158
-4z"/>
<path d="M8675 6217 c-44 -23 -126 -57 -183 -76 -79 -27 -101 -38 -98 -50 19
-66 56 -476 56 -622 l0 -99 68 5 c109 7 406 57 485 81 20 6 19 11 -15 174 -11
52 -24 115 -28 140 -24 131 -170 492 -198 489 -4 0 -43 -19 -87 -42z"/>
<path d="M8214 6087 l-81 -10 -27 -54 c-14 -29 -26 -63 -26 -74 0 -30 -18 -59
-34 -53 -17 7 -36 48 -36 80 0 14 9 43 20 64 l20 40 -20 0 c-11 0 -23 -7 -26
-15 -4 -8 -11 -15 -16 -15 -5 0 -36 -27 -67 -60 -43 -45 -62 -58 -77 -54 -19
5 -22 0 -27 -48 -7 -58 -25 -331 -30 -445 -3 -83 -3 -83 77 -83 42 0 57 5 73
23 27 30 45 65 38 77 -3 5 3 15 13 22 10 7 23 31 30 53 10 36 10 42 -7 55 -33
27 -37 110 -5 110 12 0 12 4 4 20 -8 15 -7 27 5 50 12 24 22 30 48 30 47 0 77
-10 77 -26 0 -8 3 -14 8 -14 13 0 12 -61 -2 -83 -8 -12 -17 -39 -21 -61 -10
-58 -35 -104 -62 -110 -12 -4 -23 -13 -23 -21 0 -19 17 -19 54 0 15 8 34 15
41 15 7 0 18 6 24 14 10 12 8 17 -11 27 -13 6 -24 13 -26 14 -1 1 3 14 9 29
11 23 16 26 48 20 44 -8 50 -13 53 -46 2 -21 5 -24 19 -15 36 23 69 -29 38
-60 -20 -20 -1 -53 30 -53 16 0 34 -7 41 -15 12 -15 10 -17 -20 -19 -27 -2
-16 -31 13 -34 23 -3 27 0 27 20 -1 63 -25 398 -45 613 -2 22 -4 55 -4 73 -1
24 -5 32 -18 30 -10 -1 -55 -6 -99 -11z"/>
<path d="M7717 5878 c-10 -5 -25 -7 -32 -4 -8 3 -17 1 -20 -4 -4 -6 -15 -10
-26 -10 -25 0 -36 -27 -17 -43 9 -7 18 -22 21 -35 4 -18 -3 -28 -36 -50 -23
-15 -46 -28 -52 -29 -5 -1 -17 -4 -25 -7 -8 -3 -21 -2 -28 3 -21 13 7 89 39
103 24 11 25 12 10 45 -8 18 -21 33 -27 33 -7 0 -25 -18 -41 -40 -15 -22 -34
-40 -40 -40 -7 0 -13 -4 -13 -9 0 -5 -6 -16 -14 -24 -20 -20 -10 -30 69 -70
88 -44 114 -85 109 -170 -3 -54 -25 -115 -48 -129 -19 -13 -1 -17 79 -20 l80
-3 8 150 c4 83 11 197 15 255 5 58 8 106 8 107 -1 1 -9 -3 -19 -9z"/>
<path d="M6689 5819 c-21 -18 -23 -18 -41 -3 -15 14 -18 15 -18 3 0 -8 -15
-20 -34 -27 -31 -11 -45 -33 -46 -68 0 -14 126 -94 191 -122 24 -11 64 -28 89
-40 61 -27 194 -72 214 -72 23 0 15 54 -12 88 l-22 27 -16 -22 c-22 -31 -68
-30 -99 1 -15 15 -22 31 -19 41 9 23 -21 76 -62 110 -20 17 -43 44 -50 61 -16
39 -46 48 -75 23z"/>
<path d="M6500 5626 c0 -3 -13 -56 -29 -118 -44 -170 -53 -239 -52 -397 0
-125 3 -145 18 -157 10 -8 72 -41 138 -73 110 -55 235 -102 390 -145 33 -10
68 -20 79 -23 17 -5 18 0 12 83 -11 148 -16 173 -33 167 -8 -3 -23 4 -35 17
-17 18 -19 26 -9 47 10 22 9 29 -10 49 -27 29 -17 44 30 44 l38 0 7 118 c4 64
8 126 9 136 2 16 -10 24 -58 39 -182 59 -333 124 -452 194 -24 13 -43 22 -43
19z"/>
<path d="M9626 5612 c-16 -26 -301 -152 -435 -192 l-73 -21 6 -52 c3 -29 7
-103 8 -164 2 -69 7 -112 13 -111 23 6 75 -25 75 -44 0 -29 -26 -32 -60 -8
l-30 21 0 -78 c0 -69 3 -80 21 -91 15 -10 25 -10 32 -3 7 7 16 7 29 0 24 -13
23 -26 -2 -34 -11 -4 -18 -11 -15 -16 11 -16 47 11 42 31 -6 25 8 44 27 37 9
-4 14 -13 10 -24 -3 -10 2 -5 11 10 12 20 21 26 35 22 33 -10 66 5 77 36 9 23
17 29 42 29 16 0 32 -4 35 -9 9 -14 -4 -41 -19 -41 -20 0 -39 -27 -23 -32 24
-8 -10 -35 -52 -42 -23 -4 -43 -14 -49 -25 -9 -15 -19 -17 -61 -13 l-51 5 12
-27 c10 -20 19 -26 46 -26 41 0 221 68 245 92 10 10 27 18 38 18 24 0 64 19
131 62 l46 30 7 81 c5 71 -8 288 -18 306 -2 3 -7 32 -10 63 -9 80 -53 218 -71
218 -8 0 -16 -4 -19 -8z m-308 -635 c4 -20 -25 -34 -40 -19 -15 15 -1 44 19
40 10 -2 19 -11 21 -21z"/>
<path d="M8043 5431 c0 -9 5 -19 11 -23 8 -5 7 -11 -2 -20 -22 -22 -13 -28 44
-28 48 0 55 2 44 15 -6 8 -9 18 -6 24 3 5 -3 7 -15 4 -16 -4 -20 -2 -17 13 2
13 -5 19 -28 24 -24 5 -31 3 -31 -9z"/>
<path d="M7166 5355 c-20 -15 -20 -29 -1 -45 8 -7 15 -23 15 -35 0 -30 34 -71
65 -79 14 -4 25 -11 25 -16 0 -6 9 -10 20 -10 20 0 63 -56 54 -71 -2 -4 5 -11
16 -14 12 -4 19 -12 17 -18 -2 -7 0 -20 5 -29 5 -11 5 -26 -2 -39 -9 -15 -8
-24 2 -36 10 -13 10 -17 1 -20 -15 -5 -17 -33 -3 -33 6 0 10 -8 10 -17 1 -18
22 -53 32 -53 3 0 8 9 11 20 5 20 37 29 37 10 0 -5 7 -10 15 -10 20 0 19 -9
-4 -45 -12 -21 -16 -38 -10 -52 10 -27 1 -63 -16 -63 -7 0 -19 -8 -26 -17 -12
-16 -12 -17 1 -7 20 14 79 17 129 5 25 -5 43 -5 47 0 3 6 14 7 25 4 11 -4 33
-4 49 0 28 6 30 10 30 50 0 59 -7 73 -33 68 -15 -3 -34 7 -60 31 -20 20 -44
36 -52 36 -17 0 -21 26 -4 32 6 2 5 14 -5 33 -19 36 -20 56 -5 89 11 23 17 25
55 21 41 -3 43 -2 34 16 -8 15 -7 21 4 25 8 3 19 3 23 1 21 -13 31 15 35 100
l4 93 -30 5 c-89 14 -189 24 -196 20 -5 -3 -10 1 -13 7 -2 8 -10 2 -17 -14
-17 -35 -35 -41 -71 -22 -23 11 -29 20 -24 35 5 14 2 19 -12 19 -10 0 -50 8
-89 18 -56 14 -76 16 -88 7z m382 -535 c2 -13 14 -31 25 -41 17 -13 19 -20 10
-29 -16 -17 -83 6 -84 28 -5 62 41 100 49 42z"/>
<path d="M8952 5359 c-26 -8 -32 -14 -30 -32 4 -31 -47 -38 -57 -7 -3 11 -9
19 -13 16 -4 -2 -32 -7 -62 -10 -61 -7 -257 -34 -308 -42 l-32 -5 1 -136 c0
-118 2 -133 14 -116 8 11 16 33 18 49 2 17 11 30 21 32 13 3 16 -1 11 -21 -9
-34 11 -72 30 -57 10 8 19 8 34 1 11 -6 24 -10 28 -10 16 4 43 -14 43 -28 0
-20 29 -73 40 -73 16 0 11 19 -10 42 l-20 22 27 23 c35 28 61 29 90 2 18 -18
25 -20 37 -10 16 14 49 7 116 -22 25 -10 57 -23 73 -27 l27 -9 0 215 0 214
-22 -1 c-13 0 -38 -5 -56 -10z"/>
<path d="M7784 5266 c-3 -7 -4 -34 -2 -60 l3 -46 26 24 c20 18 25 31 22 50 -4
20 -1 26 13 26 25 0 14 6 -24 13 -23 5 -34 3 -38 -7z"/>
<path d="M8333 5265 c-12 -8 -28 -12 -36 -9 -8 3 -17 -2 -20 -10 -8 -21 -27
-20 -56 1 -33 23 -273 30 -264 7 3 -8 9 -14 14 -14 13 0 49 -42 49 -58 0 -8
-11 -27 -25 -44 -32 -38 -32 -61 1 -87 28 -22 23 -46 -8 -38 -15 4 -17 3 -8
-8 8 -10 6 -23 -8 -52 -11 -21 -25 -58 -32 -82 -21 -79 -36 -93 -94 -90 l-51
3 -3 -42 c-3 -46 -5 -45 71 -44 35 0 41 -6 38 -34 -2 -20 46 -22 98 -4 28 9
56 13 63 9 6 -4 16 -5 21 -2 6 3 33 5 61 4 29 -1 73 5 99 13 26 8 47 11 47 8
0 -4 4 -1 9 6 7 12 14 11 40 -2 l31 -17 0 86 c0 50 -4 85 -10 85 -5 0 -10 -7
-10 -16 0 -13 -6 -15 -27 -9 -42 10 -49 22 -27 46 10 13 13 19 7 15 -18 -10
-53 12 -53 34 0 11 9 24 20 30 28 15 60 -4 60 -34 0 -28 26 -42 34 -19 4 9 -1
21 -11 28 -14 10 -15 16 -5 28 10 12 10 16 -2 20 -13 5 -13 12 -4 38 8 24 8
40 -2 67 -11 32 -11 37 6 49 10 7 21 13 26 13 4 0 8 32 8 70 0 75 -7 83 -47
55z m-32 -107 c10 -18 8 -24 -7 -35 -22 -16 -26 -16 -48 0 -16 12 -17 16 -5
35 18 28 45 28 60 0z m-141 -90 c30 0 70 4 88 7 30 7 32 6 32 -21 0 -50 -13
-59 -80 -59 -33 0 -60 -4 -60 -9 0 -5 -13 -6 -30 -2 -23 4 -30 2 -30 -10 0
-13 7 -15 33 -9 17 3 52 9 75 12 41 5 43 4 40 -18 -2 -14 -11 -25 -23 -27 -11
-3 -28 -13 -39 -24 -18 -19 -18 -20 2 -39 12 -10 28 -19 35 -19 26 0 38 -25
27 -54 -5 -15 -7 -39 -4 -53 l7 -25 -64 8 c-35 4 -75 8 -89 9 -44 3 -48 5 -64
21 -19 18 -21 38 -3 29 6 -4 1 2 -13 13 l-25 21 17 53 c19 60 32 110 36 144 4
26 45 65 61 58 9 -4 41 -6 71 -6z"/>
<path d="M7130 5138 c0 -43 3 -49 31 -63 17 -9 36 -14 42 -12 7 2 2 9 -11 16
-12 6 -22 19 -22 29 0 9 -9 31 -20 47 l-20 30 0 -47z"/>
<path d="M8450 4969 c0 -24 5 -39 15 -43 19 -7 19 20 0 54 l-14 25 -1 -36z"/>
<path d="M7131 4915 c-1 -27 26 -225 30 -228 2 -2 59 -12 127 -23 98 -16 122
-18 122 -7 0 7 -6 13 -13 13 -8 0 -24 9 -37 20 -26 23 -41 25 -57 9 -16 -16
-37 -1 -23 16 8 9 5 14 -10 18 -11 3 -20 12 -20 21 0 9 -4 16 -10 16 -5 0 -10
-4 -10 -10 0 -17 -17 -11 -47 14 -27 24 -28 24 -9 45 16 18 17 25 8 46 -6 14
-16 25 -22 25 -6 0 -15 10 -20 23 -8 20 -9 20 -9 2z"/>
<path d="M8550 4855 c0 -9 -7 -18 -15 -21 -8 -4 -15 -15 -15 -25 0 -12 -7 -19
-19 -19 -24 0 -43 23 -35 44 3 9 1 16 -5 16 -7 0 -11 -40 -11 -126 0 -69 4
-123 8 -120 5 3 62 8 127 11 101 5 253 26 383 53 59 12 49 29 -15 26 -90 -3
-146 -13 -154 -25 -4 -6 -12 -8 -18 -4 -9 5 -9 10 0 21 6 8 8 25 5 40 -5 20
-3 27 13 31 26 7 19 17 -30 48 -42 27 -71 33 -64 13 3 -7 -1 -33 -9 -58 -12
-41 -16 -45 -48 -48 -35 -3 -35 -2 -35 36 0 32 4 41 31 56 27 16 28 19 13 27
-9 6 -23 9 -29 7 -19 -3 -58 12 -58 23 0 5 -4 9 -10 9 -5 0 -10 -7 -10 -15z"/>
<path d="M6434 4841 c2 -9 16 -68 31 -131 15 -63 40 -147 57 -186 33 -78 23
-72 138 -88 19 -3 96 -14 170 -25 74 -11 170 -23 213 -26 74 -6 79 -6 73 12
-5 16 -46 210 -46 218 0 2 -26 9 -57 15 -127 25 -310 92 -466 168 -80 40 -116
54 -113 43z"/>
<path d="M9694 4835 c-19 -14 -19 -14 2 -15 12 0 24 7 28 15 7 19 -5 19 -30 0z"/>
<path d="M9636 4795 c-3 -10 -2 -23 4 -30 19 -22 -7 -27 -45 -9 -35 16 -37 16
-103 -14 -37 -17 -79 -34 -93 -37 -19 -5 -29 -16 -36 -38 -8 -29 -12 -32 -43
-29 -94 7 -213 -8 -225 -28 -7 -12 -36 -202 -32 -207 3 -2 60 3 128 11 68 8
151 18 184 21 98 9 208 26 231 35 41 16 115 290 78 290 -7 0 -20 12 -27 26
-12 23 -15 24 -21 9z"/>
<path d="M12090 4725 c-58 -13 -121 -31 -140 -39 -171 -70 -267 -126 -414
-241 -147 -115 -189 -152 -182 -164 8 -13 146 -55 248 -75 98 -20 391 -21 499
-2 139 25 269 72 338 122 83 61 104 106 99 214 -3 70 -6 82 -34 117 -70 87
-225 112 -414 68z"/>
<path d="M9110 4709 c0 -5 9 -9 20 -9 11 0 20 2 20 4 0 2 -9 6 -20 9 -11 3
-20 1 -20 -4z"/>
<path d="M8313 4637 c-24 -6 -43 -14 -43 -19 0 -4 7 -5 15 -2 8 4 15 1 15 -5
0 -6 14 -11 30 -11 25 0 30 4 30 25 0 14 -1 24 -2 24 -2 -1 -22 -7 -45 -12z"/>
<path d="M13325 4619 c-22 -5 -71 -21 -110 -36 -126 -47 -224 -172 -240 -306
-6 -49 -4 -61 11 -79 31 -34 90 -67 186 -104 77 -30 93 -33 108 -22 145 107
244 209 286 294 25 51 29 70 29 147 0 114 -4 117 -134 116 -53 -1 -114 -5
-136 -10z"/>
<path d="M7170 4580 c0 -19 41 -186 49 -198 5 -8 64 -16 167 -22 87 -5 201
-12 252 -15 l92 -5 -2 84 -3 85 -40 5 c-47 6 -240 32 -377 51 -53 7 -106 16
-118 20 -12 4 -20 2 -20 -5z"/>
<path d="M8963 4583 c-7 -2 -50 -10 -95 -16 -81 -12 -83 -13 -86 -41 -2 -18
-11 -30 -23 -33 -10 -3 -19 -10 -19 -17 0 -6 -3 -22 -7 -35 -4 -17 -3 -22 5
-17 6 4 22 -4 34 -16 20 -20 33 -23 95 -23 40 1 74 3 77 6 3 2 12 40 21 84 9
44 18 88 21 98 5 17 0 20 -23 10z"/>
<path d="M7810 4460 c0 -25 3 -62 6 -82 l7 -38 183 0 c172 0 185 1 202 20 9
11 31 35 48 53 18 17 39 46 47 62 l15 30 -254 0 -254 0 0 -45z"/>
<path d="M5855 4441 c-7 -12 46 -34 56 -24 5 5 -5 14 -21 20 -16 6 -32 8 -35
4z"/>
<path d="M13766 4405 c-18 -89 -29 -122 -62 -187 -35 -72 -77 -131 -142 -200
l-35 -37 48 -21 c199 -85 345 -130 445 -137 75 -5 88 -3 109 14 21 17 24 28
24 80 -1 48 -7 71 -29 109 -47 82 -109 157 -233 286 -119 123 -119 123 -125
93z"/>
<path d="M10175 4359 c-44 -10 -92 -19 -107 -19 -15 0 -30 -5 -34 -12 -5 -8 2
-9 27 -4 19 4 70 13 113 21 43 8 84 19 89 24 14 14 9 13 -88 -10z"/>
<path d="M9405 4219 c-21 -5 -46 -7 -53 -4 -12 4 -12 3 -3 -9 9 -11 9 -15 -1
-19 -7 -2 -10 -7 -6 -11 6 -7 108 39 108 49 0 3 -1 5 -2 4 -2 -1 -21 -5 -43
-10z"/>
<path d="M6740 4204 c0 -7 148 -70 235 -100 97 -33 212 -64 240 -64 10 0 8 12
-8 50 -18 44 -32 55 -59 51 -14 -2 -215 29 -310 47 -54 10 -98 18 -98 16z"/>
<path d="M7300 4128 c0 -3 11 -31 24 -64 24 -58 24 -59 73 -66 120 -18 305
-38 343 -38 l42 0 -7 68 c-4 37 -9 69 -11 71 -2 2 -78 7 -168 12 -91 4 -195
11 -231 14 -36 4 -65 5 -65 3z"/>
<path d="M6781 4069 c71 -90 167 -185 273 -266 118 -92 170 -126 289 -185 59
-29 229 -98 243 -98 1 0 -30 33 -70 73 -96 97 -155 177 -220 298 -22 41 -30
47 -68 53 -24 4 -86 20 -138 37 -52 16 -111 34 -130 40 -41 13 -166 65 -194
81 -13 7 -8 -5 15 -33z"/>
<path d="M7436 3857 c44 -61 139 -177 157 -192 113 -96 222 -161 304 -184 29
-9 32 -8 24 7 -30 57 -71 166 -77 202 -7 42 -39 156 -46 166 -5 7 -56 15 -121
18 -62 4 -134 11 -162 16 -27 5 -65 11 -83 14 l-34 6 38 -53z"/>
<path d="M8507 3711 c-3 -12 -11 -21 -17 -21 -7 0 -10 7 -6 15 7 20 4 19 -54
-11 -35 -18 -54 -23 -66 -16 -25 14 -55 -23 -91 -114 -17 -43 -29 -81 -27 -83
7 -8 102 32 164 68 66 40 195 149 186 159 -3 2 -16 6 -28 7 -13 2 -30 6 -39
10 -11 4 -18 0 -22 -14z"/>
<path d="M8619 3566 l-55 -52 82 31 c45 16 74 31 64 33 -9 2 -21 11 -26 22 -8
17 -15 13 -65 -34z"/>
<path d="M8105 3578 c-11 -6 -32 -21 -47 -34 -17 -14 -35 -20 -48 -17 -27 7
-25 0 11 -42 18 -20 40 -35 53 -35 25 0 76 49 100 97 14 28 14 32 0 37 -23 9
-46 7 -69 -6z"/>
<path d="M3226 5651 c-38 -55 -44 -107 -17 -159 12 -23 25 -42 29 -42 5 0 19
12 33 28 84 92 99 143 54 187 -36 37 -67 32 -99 -14z"/>
<path d="M2205 5453 c-27 -7 -62 -15 -76 -17 -15 -3 -62 -14 -105 -26 -44 -13
-92 -25 -109 -27 -50 -8 -65 -20 -60 -51 2 -15 7 -66 11 -114 4 -57 10 -88 17
-88 7 0 38 9 69 20 31 10 73 21 93 24 20 3 71 17 113 31 42 13 89 27 105 31
26 6 27 9 27 68 0 90 -11 166 -24 165 -6 -1 -33 -8 -61 -16z"/>
<path d="M2245 5163 c-27 -7 -90 -22 -138 -33 -48 -11 -120 -29 -160 -41 l-72
-22 0 -291 c0 -160 -2 -433 -5 -606 -4 -234 -2 -329 8 -370 7 -30 14 -65 16
-77 11 -56 66 -128 114 -150 23 -10 66 -16 113 -17 l76 -1 74 53 c99 71 153
96 193 88 l31 -6 -42 42 c-22 24 -56 69 -74 102 -30 54 -33 71 -46 210 -8 88
-14 276 -14 452 l0 301 -111 5 c-121 6 -159 21 -81 32 26 4 80 17 118 28 l70
20 -6 144 c-3 79 -8 146 -10 148 -2 2 -26 -3 -54 -11z"/>
</g>
</svg>
